<svg width="794" height="180" viewBox="0 0 794 180" fill="none" xmlns="http://www.w3.org/2000/svg">
<path d="M87.2122 71.6021L60.3616 98.4521L49.3804 87.4623C47.6679 85.7836 44.9263 85.7836 43.2132 87.4623C41.4753 89.1658 41.4474 91.9552 43.1503 93.6931L57.2468 107.798C58.073 108.625 59.1934 109.089 60.3622 109.089C61.5304 109.089 62.6508 108.625 63.477 107.798L93.5059 77.7693C95.2088 76.0315 95.1808 73.2415 93.4429 71.5386C91.7051 69.8357 88.9157 69.8637 87.2122 71.6021ZM140.907 17.0269C140.408 14.6441 138.073 13.1166 135.69 13.6146C113.93 18.2097 91.2393 13.5694 73.0302 0.800354C71.5123 -0.266785 69.4877 -0.266785 67.9698 0.800354C49.7613 13.57 27.07 18.2107 5.30988 13.6146C5.01405 13.5528 4.71284 13.5216 4.41055 13.5216C1.97614 13.52 0.00161357 15.4918 0 17.9262V88.5897C0.0145221 114.465 12.4716 138.755 33.4772 153.866L67.9354 178.574C68.6825 179.111 69.5797 179.401 70.5 179.4C71.4203 179.401 72.3175 179.112 73.0646 178.574L107.523 153.866C128.528 138.755 140.985 114.465 141 88.5897V17.9262C141 17.6239 140.969 17.3227 140.907 17.0269ZM132.188 88.5897C132.178 111.625 121.091 133.251 102.394 146.706L70.5 169.572L38.6063 146.706C19.9088 133.25 8.82218 111.625 8.8125 88.5897V23.1931C30.3306 26.4074 52.2801 21.6155 70.5 9.72473C88.7215 21.6122 110.67 26.4042 132.188 23.1931V88.5897Z" fill="#4EB9B9"/>
<path d="M231.276 131.249C216.47 131.249 204.194 126.329 194.448 116.49C184.703 106.65 179.83 94.4212 179.83 79.8024C179.83 65.1837 184.703 52.9546 194.448 43.1151C204.194 33.2756 216.47 28.3559 231.276 28.3559C240.366 28.3559 248.753 30.5112 256.437 34.8218C264.121 39.1325 270.119 44.9425 274.43 52.2518L249.971 66.3083C248.378 63.1221 245.895 60.592 242.521 58.7178C239.148 56.8436 235.399 55.9065 231.276 55.9065C224.342 55.9065 218.719 58.1555 214.409 62.6536C210.098 67.1517 207.943 72.8679 207.943 79.8024C207.943 86.737 210.098 92.4532 214.409 96.9513C218.719 101.449 224.342 103.698 231.276 103.698C235.493 103.698 239.242 102.761 242.521 100.887C245.895 99.0129 248.378 96.4359 249.971 93.1561L274.43 107.213C270.119 114.616 264.121 120.472 256.437 124.783C248.753 129.094 240.366 131.249 231.276 131.249ZM273.025 129V26.388H299.029V129H273.025ZM349.449 58.7178H375.454V129H349.449V122.675C344.951 128.203 338.673 130.968 330.614 130.968C321.149 130.968 313.418 127.454 307.42 120.426C301.423 113.397 298.424 104.542 298.424 93.8589C298.424 83.176 301.423 74.3204 307.42 67.2922C313.418 60.264 321.149 56.7499 330.614 56.7499C338.673 56.7499 344.951 59.5143 349.449 65.0432V58.7178ZM327.802 103.277C330.145 105.807 333.191 107.072 336.939 107.072C340.687 107.072 343.686 105.807 345.935 103.277C348.278 100.747 349.449 97.6073 349.449 93.8589C349.449 90.1105 348.278 86.9712 345.935 84.4411C343.686 81.9109 340.687 80.6458 336.939 80.6458C333.191 80.6458 330.145 81.9109 327.802 84.4411C325.553 86.9712 324.429 90.1105 324.429 93.8589C324.429 97.6073 325.553 100.747 327.802 103.277ZM391.4 53.3763C387.464 53.3763 384.044 51.9707 381.139 49.1594C378.328 46.2544 376.922 42.8809 376.922 39.0388C376.922 35.1967 378.328 31.87 381.139 29.0587C384.044 26.1537 387.464 24.7012 391.4 24.7012C395.242 24.7012 398.569 26.1537 401.38 29.0587C404.285 31.87 405.738 35.1967 405.738 39.0388C405.738 42.8809 404.285 46.2544 401.38 49.1594C398.569 51.9707 395.242 53.3763 391.4 53.3763ZM378.328 129V58.7178H404.332V129H378.328ZM490.027 56.7499C498.18 56.7499 504.552 59.3269 509.144 64.4809C513.735 69.5412 516.031 76.8037 516.031 86.2684V129H490.027V89.7825C490.027 84.4411 487.637 81.7704 482.858 81.7704C477.329 81.7704 474.565 85.2376 474.565 92.1721V129H448.56V89.7825C448.56 84.4411 446.171 81.7704 441.392 81.7704C435.863 81.7704 433.098 85.2376 433.098 92.1721V129H407.094V58.7178H433.098V65.3243C437.69 59.608 444.062 56.7499 452.215 56.7499C460.274 56.7499 466.131 59.6549 469.786 65.4649C474.846 59.6549 481.593 56.7499 490.027 56.7499ZM547.603 103.136H584.15V129H519.49V30.6049H583.447V56.1876H547.603V66.8705H579.933V92.1721H547.603V103.136ZM632.121 58.7178H658.125V129H632.121V122.675C627.623 128.203 621.344 130.968 613.285 130.968C603.821 130.968 596.09 127.454 590.092 120.426C584.095 113.397 581.096 104.542 581.096 93.8589C581.096 83.176 584.095 74.3204 590.092 67.2922C596.09 60.264 603.821 56.7499 613.285 56.7499C621.344 56.7499 627.623 59.5143 632.121 65.0432V58.7178ZM610.474 103.277C612.817 105.807 615.862 107.072 619.611 107.072C623.359 107.072 626.358 105.807 628.607 103.277C630.95 100.747 632.121 97.6073 632.121 93.8589C632.121 90.1105 630.95 86.9712 628.607 84.4411C626.358 81.9109 623.359 80.6458 619.611 80.6458C615.862 80.6458 612.817 81.9109 610.474 84.4411C608.225 86.9712 607.1 90.1105 607.1 93.8589C607.1 97.6073 608.225 100.747 610.474 103.277ZM686.16 79.3808C686.16 80.5053 687.004 81.3955 688.69 82.0515C690.471 82.7074 692.673 83.2229 695.297 83.5977C697.921 83.8788 700.732 84.4879 703.731 85.425C706.73 86.3621 709.541 87.5335 712.165 88.9391C714.789 90.3448 716.944 92.5938 718.631 95.6862C720.411 98.6849 721.301 102.34 721.301 106.65C721.301 111.148 720.271 115.084 718.209 118.458C716.241 121.831 713.617 124.361 710.337 126.048C707.058 127.735 703.684 128.953 700.217 129.703C696.843 130.546 693.329 130.968 689.674 130.968C672.713 130.968 661.749 125.392 656.782 114.241L679.413 104.12C681.194 108.899 684.52 111.289 689.393 111.289C692.579 111.289 694.172 110.258 694.172 108.196C694.172 106.978 693.001 105.994 690.658 105.245C688.316 104.495 685.504 103.745 682.225 102.996C678.945 102.152 675.618 101.075 672.244 99.7626C668.965 98.357 666.153 96.0611 663.811 92.8749C661.468 89.6888 660.296 85.7062 660.296 80.927C660.296 73.2428 663.201 67.2922 669.011 63.0753C674.915 58.8584 681.709 56.7499 689.393 56.7499C704.762 56.7499 714.929 62.7004 719.896 74.6016L698.389 82.3326C696.703 78.3968 694.079 76.4289 690.518 76.4289C687.613 76.4289 686.16 77.4129 686.16 79.3808ZM743.844 102.714C746.093 107.4 750.873 109.743 758.182 109.743C762.493 109.743 766.475 108.243 770.13 105.245L787.138 119.582C780.11 127.173 770.177 130.968 757.339 130.968C745.344 130.968 735.692 127.501 728.382 120.566C721.167 113.538 717.559 104.729 717.559 94.14C717.559 83.4571 721.073 74.5547 728.101 67.4328C735.223 60.3109 744.172 56.7499 754.949 56.7499C765.632 56.7499 774.394 60.264 781.235 67.2922C788.169 74.2267 791.636 82.9886 791.636 93.5778C791.636 96.6702 791.261 99.7157 790.512 102.714H743.844ZM743.423 85.9873H767.038C765.444 80.3647 761.649 77.5534 755.652 77.5534C749.561 77.5534 745.484 80.3647 743.423 85.9873Z" fill="white"/>
</svg>
