<svg width="201" height="210" viewBox="0 0 201 210" fill="none" xmlns="http://www.w3.org/2000/svg">
<path d="M119.523 83.9859L88.8821 114.626L76.3509 102.085C74.3965 100.169 71.268 100.169 69.3131 102.085C67.3299 104.029 67.298 107.212 69.2412 109.195L85.3276 125.291C86.2704 126.235 87.549 126.764 88.8828 126.764C90.2159 126.764 91.4945 126.235 92.4372 125.291L126.705 91.0237C128.648 89.0405 128.616 85.8567 126.633 83.9135C124.65 81.9702 121.467 82.0021 119.523 83.9859ZM180.797 21.707C180.228 18.9878 177.563 17.2447 174.844 17.813C150.012 23.0567 124.118 17.7615 103.339 3.18994C101.607 1.97217 99.2964 1.97217 97.5643 3.18994C76.7854 17.7621 50.8912 23.0579 26.0594 17.813C25.7218 17.7425 25.3781 17.7069 25.0331 17.7069C22.2551 17.705 20.0018 19.9552 20 22.7332V103.371C20.0166 132.899 34.2321 160.618 58.2027 177.862L97.525 206.057C98.3776 206.671 99.4014 207.001 100.452 207C101.502 207.001 102.526 206.672 103.378 206.058L142.7 177.862C166.671 160.618 180.887 132.899 180.903 103.371V22.7332C180.903 22.3883 180.868 22.0446 180.797 21.707ZM170.847 103.371C170.836 129.659 158.184 154.337 136.847 169.691L100.452 195.785L64.0559 169.691C42.7191 154.336 30.0675 129.659 30.0564 103.371V28.7435C54.612 32.4116 79.6598 26.9433 100.452 13.3741C121.245 26.9396 146.292 32.4079 170.847 28.7435V103.371Z" fill="#4EB9B9"/>
</svg>
